<?xml version="1.0" standalone="no"?>
<!DOCTYPE svg PUBLIC "-//W3C//DTD SVG 20010904//EN"
 "http://www.w3.org/TR/2001/REC-SVG-20010904/DTD/svg10.dtd">
<svg version="1.0" xmlns="http://www.w3.org/2000/svg"
 width="260.000000pt" height="260.000000pt" viewBox="0 0 260.000000 260.000000"
 preserveAspectRatio="xMidYMid meet">
<metadata>
Created by potrace 1.14, written by Peter Selinger 2001-2017
</metadata>
<g transform="translate(0.000000,260.000000) scale(0.100000,-0.100000)"
fill="#000000" stroke="none">
<path d="M1129 2539 c-122 -18 -249 -57 -365 -110 -63 -29 -178 -99 -182 -110
-2 -5 -8 -9 -13 -9 -6 0 -16 -6 -25 -12 -90 -77 -164 -149 -164 -160 0 -5 -4
-6 -10 -3 -5 3 -10 2 -10 -3 0 -5 -11 -22 -25 -38 -14 -16 -42 -54 -62 -84
-21 -30 -42 -58 -48 -62 -7 -5 -7 -8 0 -8 6 0 1 -7 -9 -15 -11 -8 -16 -15 -12
-15 4 0 -3 -19 -17 -42 -14 -24 -25 -46 -26 -51 0 -4 -7 -22 -15 -40 -14 -32
-28 -68 -31 -77 0 -3 -6 -21 -13 -40 -6 -19 -14 -50 -17 -69 -3 -19 -8 -38
-11 -43 -21 -34 -27 -359 -9 -463 16 -85 47 -197 73 -255 51 -119 109 -225
138 -254 8 -9 12 -16 7 -16 -4 0 -3 -4 2 -8 6 -4 30 -32 55 -62 25 -30 54 -64
65 -75 94 -95 321 -255 339 -238 3 3 6 2 6 -4 0 -9 26 -23 75 -39 6 -2 46 -16
91 -32 45 -16 101 -32 125 -37 24 -4 60 -10 79 -13 52 -9 337 -8 394 2 27 4
78 17 115 27 36 11 73 21 81 23 163 41 445 236 560 385 14 18 30 38 35 44 22
25 75 106 75 115 0 6 4 12 9 14 20 7 119 245 137 329 25 123 31 180 31 307 1
131 -4 169 -31 297 -3 11 -10 36 -16 55 -6 19 -13 42 -15 50 -13 54 -86 204
-126 262 -11 14 -19 31 -19 36 0 6 -3 12 -7 14 -5 2 -21 21 -38 43 -54 73
-137 161 -194 203 -20 15 -42 33 -49 40 -24 22 -100 72 -110 72 -6 0 -12 3
-14 8 -1 4 -34 22 -73 41 -38 18 -78 37 -89 43 -10 5 -26 11 -35 13 -9 2 -38
11 -65 20 -139 48 -391 68 -547 44z m381 -360 c285 -46 526 -235 633 -498 10
-24 15 -46 12 -49 -3 -3 -92 -6 -198 -6 l-192 -1 -38 58 c-89 133 -222 196
-402 191 -305 -8 -504 -234 -506 -573 -1 -261 121 -463 331 -545 88 -35 244
-40 342 -12 103 31 201 109 250 200 l16 31 201 0 c129 0 201 -4 201 -10 0 -6
-23 -57 -51 -114 -44 -89 -64 -117 -138 -191 -114 -115 -229 -181 -396 -226
-82 -22 -307 -27 -405 -9 -425 79 -710 426 -711 865 0 278 78 475 263 662 90
91 272 191 389 214 19 4 50 10 69 14 53 12 257 11 330 -1z"/>
</g>
</svg>
