<svg width="88" height="100" viewBox="0 0 88 100" fill="none" xmlns="http://www.w3.org/2000/svg">
<path d="M34.7 41.95C31.85 41.95 29.6 44.45 29.6 47.5C29.6 50.55 31.9 53.05 34.7 53.05C37.55 53.05 39.8 50.55 39.8 47.5C39.85 44.45 37.55 41.95 34.7 41.95ZM52.95 41.95C50.1 41.95 47.85 44.45 47.85 47.5C47.85 50.55 50.15 53.05 52.95 53.05C55.8 53.05 58.05 50.55 58.05 47.5C58.05 44.45 55.8 41.95 52.95 41.95Z" fill="white"/>
<path d="M77.25 0H10.25C4.6 0 0 4.6 0 10.3V77.9C0 83.6 4.6 88.2 10.25 88.2H66.95L64.3 78.95L70.7 84.9L76.75 90.5L87.5 100V10.3C87.5 4.6 82.9 0 77.25 0ZM57.95 65.3C57.95 65.3 56.15 63.15 54.65 61.25C61.2 59.4 63.7 55.3 63.7 55.3C61.65 56.65 59.7 57.6 57.95 58.25C55.45 59.3 53.05 60 50.7 60.4C45.9 61.3 41.5 61.05 37.75 60.35C34.9 59.8 32.45 59 30.4 58.2C29.25 57.75 28 57.2 26.75 56.5C26.6 56.4 26.45 56.35 26.3 56.25C26.2 56.2 26.15 56.15 26.1 56.1C25.2 55.6 24.7 55.25 24.7 55.25C24.7 55.25 27.1 59.25 33.45 61.15C31.95 63.05 30.1 65.3 30.1 65.3C19.05 64.95 14.85 57.7 14.85 57.7C14.85 41.6 22.05 28.55 22.05 28.55C29.25 23.15 36.1 23.3 36.1 23.3L36.6 23.9C27.6 26.5 23.45 30.45 23.45 30.45C23.45 30.45 24.55 29.85 26.4 29C31.75 26.65 36 26 37.75 25.85C38.05 25.8 38.3 25.75 38.6 25.75C41.65 25.35 45.1 25.25 48.7 25.65C53.45 26.2 58.55 27.6 63.75 30.45C63.75 30.45 59.8 26.7 51.3 24.1L52 23.3C52 23.3 58.85 23.15 66.05 28.55C66.05 28.55 73.25 41.6 73.25 57.7C73.25 57.7 69 64.95 57.95 65.3Z" fill="white"/>
</svg>
