<svg width="100" height="100" viewBox="0 0 100 100" fill="none" xmlns="http://www.w3.org/2000/svg">
<path d="M50.0098 9.00567C63.3718 9.00567 64.9541 9.06427 70.209 9.29869C75.0928 9.51358 77.73 10.3341 79.4882 11.0178C81.8129 11.9164 83.4929 13.0104 85.2315 14.749C86.9896 16.5071 88.0641 18.1676 88.9627 20.4923C89.6464 22.2504 90.4669 24.9072 90.6818 29.7714C90.9162 35.0459 90.9748 36.6283 90.9748 49.9707C90.9748 63.3327 90.9162 64.915 90.6818 70.17C90.4669 75.0537 89.6464 77.691 88.9627 79.4491C88.0641 81.7738 86.9701 83.4538 85.2315 85.1924C83.4733 86.9506 81.8129 88.025 79.4882 88.9236C77.73 89.6074 75.0733 90.4278 70.209 90.6427C64.9346 90.8771 63.3522 90.9357 50.0098 90.9357C36.6478 90.9357 35.0654 90.8771 29.8105 90.6427C24.9267 90.4278 22.2895 89.6074 20.5314 88.9236C18.2067 88.025 16.5267 86.9311 14.788 85.1924C13.0299 83.4343 11.9555 81.7738 11.0568 79.4491C10.3731 77.691 9.55265 75.0342 9.33776 70.17C9.10334 64.8955 9.04474 63.3132 9.04474 49.9707C9.04474 36.6087 9.10334 35.0264 9.33776 29.7714C9.55265 24.8877 10.3731 22.2504 11.0568 20.4923C11.9555 18.1676 13.0494 16.4876 14.788 14.749C16.5462 12.9908 18.2067 11.9164 20.5314 11.0178C22.2895 10.3341 24.9463 9.51358 29.8105 9.29869C35.0654 9.06427 36.6478 9.00567 50.0098 9.00567ZM50.0098 0C36.4329 0 34.7333 0.0586052 29.4003 0.293026C24.0867 0.527447 20.4337 1.38699 17.269 2.6177C13.9676 3.90701 11.1741 5.60656 8.40008 8.40008C5.60656 11.1741 3.90701 13.9676 2.6177 17.2495C1.38699 20.4337 0.527447 24.0672 0.293026 29.3807C0.0586052 34.7333 0 36.4329 0 50.0098C0 63.5866 0.0586052 65.2862 0.293026 70.6193C0.527447 75.9328 1.38699 79.5859 2.6177 82.7505C3.90701 86.052 5.60656 88.8455 8.40008 91.6195C11.1741 94.3934 13.9676 96.1125 17.2495 97.3823C20.4337 98.613 24.0672 99.4726 29.3807 99.707C34.7138 99.9414 36.4134 100 49.9902 100C63.5671 100 65.2667 99.9414 70.5997 99.707C75.9133 99.4726 79.5663 98.613 82.731 97.3823C86.0129 96.1125 88.8064 94.3934 91.5804 91.6195C94.3544 88.8455 96.0734 86.052 97.3432 82.7701C98.5739 79.5859 99.4335 75.9523 99.6679 70.6388C99.9023 65.3057 99.9609 63.6062 99.9609 50.0293C99.9609 36.4524 99.9023 34.7529 99.6679 29.4198C99.4335 24.1063 98.5739 20.4532 97.3432 17.2885C96.1125 13.9676 94.413 11.1741 91.6195 8.40008C88.8455 5.6261 86.052 3.90701 82.7701 2.63723C79.5859 1.40652 75.9523 0.546982 70.6388 0.312561C65.2862 0.0586052 63.5866 0 50.0098 0Z" fill="white"/>
<path d="M50.0098 24.3212C35.8273 24.3212 24.3212 35.8273 24.3212 50.0098C24.3212 64.1922 35.8273 75.6984 50.0098 75.6984C64.1922 75.6984 75.6984 64.1922 75.6984 50.0098C75.6984 35.8273 64.1922 24.3212 50.0098 24.3212ZM50.0098 66.6732C40.8088 66.6732 33.3464 59.2108 33.3464 50.0098C33.3464 40.8088 40.8088 33.3464 50.0098 33.3464C59.2108 33.3464 66.6732 40.8088 66.6732 50.0098C66.6732 59.2108 59.2108 66.6732 50.0098 66.6732Z" fill="white"/>
<path d="M82.7115 23.3052C82.7115 26.6261 80.0156 29.3024 76.7142 29.3024C73.3932 29.3024 70.7169 26.6066 70.7169 23.3052C70.7169 19.9842 73.4128 17.3079 76.7142 17.3079C80.0156 17.3079 82.7115 20.0037 82.7115 23.3052Z" fill="white"/>
</svg>
