<svg width="143" height="100" viewBox="0 0 143 100" fill="none" xmlns="http://www.w3.org/2000/svg">
<path d="M140.766 21.5773C140.766 21.5773 139.378 11.7745 135.101 7.47015C129.686 1.80505 123.632 1.77728 120.855 1.44404C100.972 -7.94508e-07 71.1191 0 71.1191 0H71.0636C71.0636 0 41.2108 -7.94508e-07 21.3274 1.44404C18.5504 1.77728 12.4965 1.80505 7.08137 7.47015C2.80478 11.7745 1.44404 21.5773 1.44404 21.5773C1.44404 21.5773 0 33.1019 0 44.5987V55.3735C0 66.8703 1.41627 78.3949 1.41627 78.3949C1.41627 78.3949 2.80478 88.1977 7.0536 92.5021C12.4688 98.1672 19.5779 97.9728 22.7437 98.5837C34.1294 99.6668 71.0914 100 71.0914 100C71.0914 100 100.972 99.9445 120.855 98.5282C123.632 98.1949 129.686 98.1672 135.101 92.5021C139.378 88.1977 140.766 78.3949 140.766 78.3949C140.766 78.3949 142.183 66.8981 142.183 55.3735V44.5987C142.183 33.1019 140.766 21.5773 140.766 21.5773ZM56.401 68.4532V28.4921L94.807 48.5421L56.401 68.4532Z" fill="white"/>
</svg>
