<svg width="168" height="168" viewBox="0 0 168 168" fill="none" xmlns="http://www.w3.org/2000/svg">
<path d="M84 167.333C38.0833 167.333 0.666656 129.917 0.666656 83.9998C0.666656 38.0832 38.0833 0.666504 84 0.666504C129.917 0.666504 167.333 34.3332 167.333 75.6665C167.333 103.25 144.917 125.667 117.333 125.667H102.583C100.25 125.667 98.4167 127.5 98.4167 129.833C98.4167 130.833 98.8333 131.75 99.5 132.583C102.917 136.5 104.833 141.417 104.833 146.5C104.833 152.025 102.638 157.324 98.7314 161.231C94.8244 165.138 89.5253 167.333 84 167.333ZM84 17.3332C47.25 17.3332 17.3333 47.2498 17.3333 83.9998C17.3333 120.75 47.25 150.667 84 150.667C86.3333 150.667 88.1667 148.833 88.1667 146.5C88.1408 145.419 87.7266 144.384 87 143.583C83.5833 139.75 81.75 134.833 81.75 129.833C81.75 124.308 83.9449 119.009 87.8519 115.102C91.7589 111.195 97.058 109 102.583 109H117.333C135.75 109 150.667 94.0832 150.667 75.6665C150.667 43.4998 120.75 17.3332 84 17.3332Z" fill="black"/>
<path d="M38.1667 92.3332C45.0702 92.3332 50.6667 86.7367 50.6667 79.8332C50.6667 72.9296 45.0702 67.3332 38.1667 67.3332C31.2631 67.3332 25.6667 72.9296 25.6667 79.8332C25.6667 86.7367 31.2631 92.3332 38.1667 92.3332Z" fill="black"/>
<path d="M63.1667 58.9998C70.0702 58.9998 75.6667 53.4034 75.6667 46.4998C75.6667 39.5963 70.0702 33.9998 63.1667 33.9998C56.2631 33.9998 50.6667 39.5963 50.6667 46.4998C50.6667 53.4034 56.2631 58.9998 63.1667 58.9998Z" fill="black"/>
<path d="M104.833 58.9998C111.737 58.9998 117.333 53.4034 117.333 46.4998C117.333 39.5963 111.737 33.9998 104.833 33.9998C97.9298 33.9998 92.3333 39.5963 92.3333 46.4998C92.3333 53.4034 97.9298 58.9998 104.833 58.9998Z" fill="black"/>
<path d="M129.833 92.3332C136.737 92.3332 142.333 86.7367 142.333 79.8332C142.333 72.9296 136.737 67.3332 129.833 67.3332C122.93 67.3332 117.333 72.9296 117.333 79.8332C117.333 86.7367 122.93 92.3332 129.833 92.3332Z" fill="black"/>
</svg>
