<?xml version="1.0" encoding="utf-8"?>
<!-- Generator: Adobe Illustrator 26.4.1, SVG Export Plug-In . SVG Version: 6.00 Build 0)  -->
<svg version="1.1" id="Layer_1" xmlns="http://www.w3.org/2000/svg" xmlns:xlink="http://www.w3.org/1999/xlink" x="0px" y="0px"
	 viewBox="0 0 168 168" style="enable-background:new 0 0 168 168;" xml:space="preserve">
<style type="text/css">
	.st0{fill:#FFFFFF;}
</style>
<path class="st0" d="M84,167.3c-45.9,0-83.3-37.4-83.3-83.3C0.7,38.1,38.1,0.7,84,0.7c45.9,0,83.3,33.7,83.3,75
	c0,27.6-22.4,50-50,50h-14.8c-2.3,0-4.2,1.8-4.2,4.2c0,1,0.4,1.9,1.1,2.8c3.4,3.9,5.3,8.8,5.3,13.9c0,5.5-2.2,10.8-6.1,14.7
	C94.8,165.1,89.5,167.3,84,167.3z M84,17.3c-36.8,0-66.7,29.9-66.7,66.7c0,36.8,29.9,66.7,66.7,66.7c2.3,0,4.2-1.8,4.2-4.2
	c0-1.1-0.4-2.1-1.2-2.9c-3.4-3.8-5.2-8.8-5.2-13.8c0-5.5,2.2-10.8,6.1-14.7c3.9-3.9,9.2-6.1,14.7-6.1h14.8
	c18.4,0,33.3-14.9,33.3-33.3C150.7,43.5,120.8,17.3,84,17.3z"/>
<path class="st0" d="M38.2,92.3c6.9,0,12.5-5.6,12.5-12.5c0-6.9-5.6-12.5-12.5-12.5c-6.9,0-12.5,5.6-12.5,12.5
	C25.7,86.7,31.3,92.3,38.2,92.3z"/>
<path class="st0" d="M63.2,59c6.9,0,12.5-5.6,12.5-12.5c0-6.9-5.6-12.5-12.5-12.5c-6.9,0-12.5,5.6-12.5,12.5
	C50.7,53.4,56.3,59,63.2,59z"/>
<path class="st0" d="M104.8,59c6.9,0,12.5-5.6,12.5-12.5c0-6.9-5.6-12.5-12.5-12.5c-6.9,0-12.5,5.6-12.5,12.5
	C92.3,53.4,97.9,59,104.8,59z"/>
<path class="st0" d="M129.8,92.3c6.9,0,12.5-5.6,12.5-12.5c0-6.9-5.6-12.5-12.5-12.5c-6.9,0-12.5,5.6-12.5,12.5
	C117.3,86.7,122.9,92.3,129.8,92.3z"/>
</svg>
