<svg width="716" height="721" viewBox="0 0 716 721" fill="none" xmlns="http://www.w3.org/2000/svg">
<path d="M714 394.5L382.1 12C379.1 8.53883 375.391 5.76302 371.224 3.86061C367.057 1.9582 362.53 0.973633 357.95 0.973633C353.37 0.973633 348.843 1.9582 344.676 3.86061C340.509 5.76302 336.8 8.53883 333.8 12L1.99998 394.5C0.997352 395.653 0.347242 397.07 0.127105 398.582C-0.0930317 400.094 0.126077 401.637 0.758331 403.028C1.39058 404.419 2.40934 405.599 3.69324 406.427C4.97714 407.255 6.47208 407.697 7.99998 407.7H89C93.6 407.7 98 405.7 101.1 402.2L320 149.9V713C320 717.4 323.6 721 328 721H388C392.4 721 396 717.4 396 713V149.9L614.9 402.2C617.9 405.7 622.3 407.7 627 407.7H708C714.8 407.7 718.5 399.7 714 394.5Z" fill="black"/>
</svg>
